#define max_toggled_width 12
#define max_toggled_height 12
static unsigned char max_toggled_bits[] = {
   0x00, 0x00, 0xf8, 0x07, 0x08, 0x04, 0xfe, 0x05, 0x02, 0x05, 0x02, 0x05,
   0x02, 0x05, 0x02, 0x05, 0x02, 0x07, 0x02, 0x01, 0xfe, 0x01, 0x00, 0x00 };
