#define max_toggled_pressed_width 12
#define max_toggled_pressed_height 12
static unsigned char max_toggled_pressed_bits[] = {
   0x00, 0x00, 0x00, 0x00, 0xf0, 0x03, 0x10, 0x02, 0xfc, 0x02, 0x84, 0x02,
   0x84, 0x02, 0x84, 0x03, 0x84, 0x00, 0xfc, 0x00, 0x00, 0x00, 0x00, 0x00 };
